<svg width="24" height="24" viewBox="0 0 24 24" fill="none" xmlns="http://www.w3.org/2000/svg">
<path d="M2 12C2 11.655 2.28 11.375 2.625 11.375L18.848 11.375L12.437 5.07004C12.3758 5.01316 12.3266 4.94459 12.2923 4.86837C12.2581 4.79215 12.2395 4.70984 12.2376 4.6263C12.2357 4.54276 12.2506 4.45969 12.2814 4.38201C12.3121 4.30432 12.3582 4.23359 12.4168 4.17401C12.4753 4.11442 12.5453 4.06719 12.6224 4.0351C12.6996 4.00301 12.7824 3.98672 12.8659 3.98719C12.9495 3.98766 13.0321 4.00488 13.1089 4.03783C13.1857 4.07079 13.2551 4.1188 13.313 4.17904L20.807 11.548L20.8205 11.561C20.8854 11.6268 20.9349 11.7062 20.9654 11.7934C20.9958 11.8807 21.0065 11.9737 20.9965 12.0655C20.9808 12.2159 20.911 12.3554 20.8 12.458L13.313 19.8205C13.2551 19.8808 13.1857 19.9288 13.1089 19.9618C13.0321 19.9947 12.9495 20.0119 12.8659 20.0124C12.7824 20.0129 12.6996 19.9966 12.6224 19.9645C12.5453 19.9324 12.4753 19.8852 12.4168 19.8256C12.3582 19.766 12.3121 19.6953 12.2814 19.6176C12.2506 19.5399 12.2357 19.4568 12.2376 19.3733C12.2395 19.2897 12.2581 19.2074 12.2923 19.1312C12.3266 19.055 12.3758 18.9864 12.437 18.9295L18.848 12.6245L2.625 12.6245C2.54295 12.6246 2.46169 12.6085 2.38586 12.5771C2.31004 12.5458 2.24113 12.4998 2.18309 12.4418C2.12505 12.3838 2.079 12.3149 2.04759 12.2391C2.01617 12.1633 2 12.0821 2 12Z" fill="black" fill-opacity="0.75"/>
</svg>
