<svg width="45" height="24" viewBox="0 0 45 24" fill="none" xmlns="http://www.w3.org/2000/svg">
<g clip-path="url(#clip0_384_290)">
<path d="M2 12C2 11.655 2.28 11.375 2.625 11.375H42.848L36.437 5.07001C36.3758 5.01313 36.3266 4.94456 36.2923 4.86834C36.2581 4.79212 36.2395 4.70981 36.2376 4.62627C36.2357 4.54273 36.2506 4.45966 36.2814 4.38198C36.3121 4.30429 36.3582 4.23356 36.4168 4.17398C36.4753 4.11439 36.5453 4.06716 36.6224 4.03507C36.6996 4.00298 36.7824 3.98669 36.8659 3.98716C36.9495 3.98763 37.0321 4.00485 37.1089 4.0378C37.1857 4.07076 37.2551 4.11877 37.313 4.17901L44.807 11.548L44.8205 11.561C44.8854 11.6268 44.9349 11.7062 44.9654 11.7934C44.9958 11.8807 45.0065 11.9736 44.9965 12.0655C44.9808 12.2159 44.911 12.3554 44.8 12.458L37.313 19.8205C37.2551 19.8808 37.1857 19.9288 37.1089 19.9617C37.0321 19.9947 36.9495 20.0119 36.8659 20.0124C36.7824 20.0128 36.6996 19.9965 36.6224 19.9645C36.5453 19.9324 36.4753 19.8851 36.4168 19.8255C36.3582 19.766 36.3121 19.6952 36.2814 19.6175C36.2506 19.5399 36.2357 19.4568 36.2376 19.3733C36.2395 19.2897 36.2581 19.2074 36.2923 19.1312C36.3266 19.055 36.3758 18.9864 36.437 18.9295L42.848 12.6245H2.625C2.54295 12.6246 2.46169 12.6085 2.38586 12.5771C2.31004 12.5458 2.24113 12.4998 2.18309 12.4418C2.12505 12.3838 2.079 12.3149 2.04759 12.2391C2.01617 12.1633 2 12.0821 2 12Z" fill="black" fill-opacity="0.75"/>
</g>
<defs>
<clipPath id="clip0_384_290">
<rect width="45" height="24" fill="white"/>
</clipPath>
</defs>
</svg>
