<svg width="43" height="18" viewBox="0 0 43 18" fill="none" xmlns="http://www.w3.org/2000/svg">
<path d="M0 9.00001C0 8.65501 0.28 8.37501 0.625 8.37501H40.848L34.437 2.07001C34.3758 2.01313 34.3266 1.94456 34.2923 1.86834C34.2581 1.79212 34.2395 1.70981 34.2376 1.62627C34.2357 1.54273 34.2506 1.45966 34.2814 1.38198C34.3121 1.30429 34.3582 1.23356 34.4168 1.17398C34.4753 1.11439 34.5453 1.06716 34.6224 1.03507C34.6996 1.00298 34.7824 0.986693 34.8659 0.987162C34.9495 0.987631 35.0321 1.00485 35.1089 1.0378C35.1857 1.07076 35.2551 1.11877 35.313 1.17901L42.807 8.54801L42.8205 8.56101C42.8854 8.62676 42.9349 8.70616 42.9654 8.79342C42.9958 8.88068 43.0065 8.97363 42.9965 9.06551C42.9808 9.21586 42.911 9.35538 42.8 9.45801L35.313 16.8205C35.2551 16.8808 35.1857 16.9288 35.1089 16.9617C35.0321 16.9947 34.9495 17.0119 34.8659 17.0124C34.7824 17.0128 34.6996 16.9965 34.6224 16.9645C34.5453 16.9324 34.4753 16.8851 34.4168 16.8255C34.3582 16.766 34.3121 16.6952 34.2814 16.6175C34.2506 16.5399 34.2357 16.4568 34.2376 16.3733C34.2395 16.2897 34.2581 16.2074 34.2923 16.1312C34.3266 16.055 34.3758 15.9864 34.437 15.9295L40.848 9.62451H0.625C0.542947 9.62458 0.461686 9.60847 0.385861 9.57712C0.310035 9.54576 0.241132 9.49977 0.183089 9.44178C0.125045 9.38378 0.0790003 9.31491 0.047585 9.23911C0.0161697 9.16331 -2.62989e-08 9.08206 0 9.00001Z" fill="black" fill-opacity="0.75"/>
</svg>
