<svg width="22" height="24" viewBox="0 0 22 24" fill="none" xmlns="http://www.w3.org/2000/svg">
<path d="M5.98906 3.46999L10.6491 6.65099C10.7541 6.72099 10.8771 6.75899 11.0031 6.76199C11.1295 6.76111 11.2528 6.72246 11.3571 6.65099L16.0211 3.45899C16.11 3.39481 16.1809 3.30875 16.2269 3.20913C16.2728 3.10951 16.2922 2.99971 16.2833 2.89037C16.2743 2.78104 16.2373 2.67586 16.1758 2.58504C16.1142 2.49422 16.0303 2.42084 15.9321 2.37199L11.2721 0.0649885C11.1848 0.0225441 11.0891 0.000488281 10.9921 0.000488281C10.895 0.000488281 10.7993 0.0225441 10.7121 0.0649885L6.06706 2.37199C5.96685 2.42089 5.88126 2.49527 5.81886 2.58768C5.75647 2.68009 5.71946 2.78728 5.71156 2.89851C5.70366 3.00973 5.72514 3.12107 5.77385 3.22138C5.82255 3.32168 5.89677 3.40742 5.98906 3.46999ZM12.5861 7.64899C12.5861 7.85999 12.6901 8.05699 12.8621 8.17699L16.5981 10.73C16.7142 10.81 16.854 10.8486 16.9947 10.8395C17.1355 10.8305 17.2691 10.7743 17.3741 10.68L20.5081 7.87699C20.5771 7.81518 20.6319 7.73904 20.6685 7.65389C20.7051 7.56875 20.7227 7.47663 20.72 7.38399C20.7173 7.29134 20.6945 7.20039 20.653 7.11749C20.6116 7.03458 20.5526 6.96172 20.4801 6.90399L17.4881 4.51099C17.3823 4.42685 17.2524 4.37867 17.1173 4.37345C16.9822 4.36824 16.849 4.40626 16.7371 4.48199L12.8631 7.13199C12.7793 7.19008 12.7104 7.26724 12.6623 7.35712C12.6141 7.44701 12.588 7.54704 12.5861 7.64899ZM3.29506 11.123C3.3696 11.19 3.42735 11.2736 3.46365 11.3671C3.49995 11.4605 3.51379 11.5612 3.50406 11.661C3.49451 11.7612 3.46087 11.8577 3.40603 11.9421C3.35118 12.0266 3.27675 12.0965 3.18906 12.146L0.958059 13.483C0.847695 13.5491 0.719732 13.5799 0.591374 13.5711C0.463016 13.5623 0.340416 13.5145 0.240059 13.434C0.139171 13.3532 0.0651109 13.2437 0.0276265 13.12C-0.00985795 12.9963 -0.0090099 12.8642 0.0300591 12.741L0.855059 10.145C0.886461 10.0441 0.942728 9.95275 1.01868 9.87932C1.09464 9.80588 1.18784 9.75273 1.28972 9.72474C1.3916 9.69676 1.49887 9.69485 1.60168 9.71918C1.70449 9.74351 1.79953 9.79331 1.87806 9.86399L3.29506 11.123ZM15.3951 11.394L11.3621 8.63399C11.2574 8.56357 11.1342 8.52595 11.0081 8.52595C10.8819 8.52595 10.7587 8.56357 10.6541 8.63399L6.62106 11.394C6.54173 11.4491 6.47575 11.5212 6.42799 11.6051C6.38022 11.6891 6.35189 11.7827 6.34506 11.879C6.34011 11.9761 6.35653 12.073 6.39317 12.163C6.4298 12.2531 6.48575 12.334 6.55706 12.4L10.5871 16.005C10.7032 16.1078 10.8529 16.1646 11.0081 16.1646C11.1632 16.1646 11.3129 16.1078 11.4291 16.005L15.4591 12.4C15.5304 12.3347 15.5862 12.2542 15.6223 12.1645C15.6585 12.0748 15.674 11.9782 15.6679 11.8817C15.6618 11.7852 15.6341 11.6912 15.5868 11.6069C15.5396 11.5225 15.4741 11.4497 15.3951 11.394ZM4.63706 10.681L1.50706 7.87799C1.43708 7.81471 1.38176 7.73691 1.34497 7.65003C1.30818 7.56315 1.2908 7.46928 1.29406 7.37499C1.29547 7.28226 1.31746 7.19101 1.35845 7.10783C1.39944 7.02464 1.45839 6.9516 1.53106 6.89399L4.52306 4.48699C4.62952 4.40304 4.75986 4.355 4.89534 4.34979C5.03082 4.34458 5.16446 4.38246 5.27706 4.45799L9.14706 7.10799C9.23599 7.16607 9.30904 7.24541 9.3596 7.33882C9.41016 7.43223 9.43664 7.53677 9.43664 7.64299C9.43664 7.74921 9.41016 7.85375 9.3596 7.94716C9.30904 8.04057 9.23599 8.11991 9.14706 8.17799L5.41506 10.731C5.2984 10.8107 5.15843 10.849 5.01745 10.84C4.87646 10.8309 4.74256 10.7749 4.63706 10.681ZM20.7101 14.707L17.5231 12.799C17.4079 12.7294 17.2733 12.6987 17.1393 12.7115C17.0053 12.7243 16.879 12.7799 16.7791 12.87L12.8841 16.347C12.8033 16.4197 12.7422 16.5116 12.7066 16.6143C12.6709 16.7169 12.6618 16.8269 12.6801 16.934C12.6982 17.0409 12.7434 17.1414 12.8113 17.2259C12.8792 17.3105 12.9676 17.3762 13.0681 17.417L18.4721 19.607C18.6245 19.6679 18.7945 19.6673 18.9465 19.6054C19.0985 19.5435 19.2206 19.4251 19.2871 19.275L20.9621 15.523C21.0279 15.3798 21.0386 15.2174 20.9921 15.0668C20.9456 14.9162 20.8452 14.7881 20.7101 14.707ZM21.1521 10.146L21.9771 12.742H21.9701C22.0096 12.8646 22.011 12.9963 21.9739 13.1197C21.9369 13.2431 21.8632 13.3523 21.7626 13.4329C21.662 13.5134 21.5393 13.5614 21.4108 13.5705C21.2823 13.5796 21.154 13.5495 21.0431 13.484L18.8091 12.147C18.7231 12.0964 18.6506 12.026 18.5975 11.9416C18.5444 11.8572 18.5124 11.7613 18.5041 11.662C18.4936 11.5622 18.5071 11.4613 18.5434 11.3677C18.5798 11.2741 18.6379 11.1906 18.7131 11.124L20.1291 9.86199C20.2078 9.79135 20.303 9.74166 20.406 9.71752C20.509 9.69338 20.6164 9.69556 20.7183 9.72385C20.8202 9.75215 20.9134 9.80565 20.9892 9.87942C21.065 9.9532 21.121 10.0449 21.1521 10.146ZM9.33206 16.932C9.35089 16.8253 9.34222 16.7157 9.30688 16.6133C9.27153 16.5109 9.21068 16.4193 9.13006 16.347L5.23506 12.87C5.13509 12.7799 5.00878 12.7243 4.87479 12.7115C4.74081 12.6987 4.60627 12.7294 4.49106 12.799L1.30406 14.707C1.17047 14.7888 1.07103 14.9162 1.02415 15.0657C0.977267 15.2152 0.986117 15.3765 1.04906 15.52L2.72706 19.272C2.79312 19.4222 2.91498 19.5407 3.06688 19.6027C3.21878 19.6647 3.38882 19.6651 3.54106 19.604L8.94106 17.414C9.04192 17.3737 9.1308 17.3082 9.19923 17.2238C9.26767 17.1395 9.31339 17.039 9.33206 16.932ZM11.2441 18.002L15.5781 19.757C15.7901 19.848 15.9361 20.047 15.9601 20.278C15.9735 20.3924 15.9556 20.5083 15.9082 20.6133C15.8608 20.7183 15.7857 20.8084 15.6911 20.874L11.3531 23.887C11.2495 23.9595 11.1264 23.9989 11.0001 24C10.8734 23.9979 10.7502 23.9582 10.6461 23.886L6.31206 20.873C6.21626 20.8081 6.13999 20.7184 6.09149 20.6133C6.04299 20.5083 6.0241 20.392 6.03686 20.2771C6.04963 20.1621 6.09356 20.0528 6.16391 19.9609C6.23426 19.8691 6.32837 19.7982 6.43606 19.756L10.7701 18.001C10.9224 17.9408 11.092 17.9412 11.2441 18.002Z" fill="#EAE1D6"/>
</svg>
