<svg width="113" height="29" viewBox="0 0 113 29" fill="none" xmlns="http://www.w3.org/2000/svg">
<path d="M41.456 5.792C42.76 5.792 43.94 6.008 44.996 6.44C46.06 6.872 46.972 7.484 47.732 8.276C48.492 9.068 49.076 10.008 49.484 11.096C49.892 12.184 50.096 13.384 50.096 14.696C50.096 15.952 49.892 17.112 49.484 18.176C49.084 19.24 48.508 20.168 47.756 20.96C47.004 21.744 46.1 22.352 45.044 22.784C43.996 23.216 42.824 23.432 41.528 23.432C40.232 23.432 39.056 23.216 38 22.784C36.944 22.352 36.036 21.74 35.276 20.948C34.524 20.156 33.944 19.216 33.536 18.128C33.128 17.032 32.924 15.824 32.924 14.504C32.924 13.256 33.124 12.1 33.524 11.036C33.932 9.972 34.508 9.048 35.252 8.264C36.004 7.48 36.904 6.872 37.952 6.44C39 6.008 40.168 5.792 41.456 5.792ZM46.304 16.856C46.304 15.792 46.204 14.772 46.004 13.796C45.812 12.812 45.54 11.908 45.188 11.084C44.836 10.26 44.424 9.54 43.952 8.924C43.48 8.308 42.964 7.832 42.404 7.496C41.852 7.152 41.276 6.98 40.676 6.98C39.884 6.98 39.196 7.192 38.612 7.616C38.028 8.04 37.576 8.652 37.256 9.452C36.936 10.252 36.776 11.22 36.776 12.356C36.776 13.42 36.872 14.444 37.064 15.428C37.264 16.412 37.536 17.32 37.88 18.152C38.232 18.976 38.644 19.696 39.116 20.312C39.588 20.928 40.1 21.408 40.652 21.752C41.212 22.088 41.788 22.256 42.38 22.256C43.18 22.256 43.872 22.044 44.456 21.62C45.048 21.196 45.504 20.58 45.824 19.772C46.144 18.964 46.304 17.992 46.304 16.856ZM41.888 18.824C41.832 18.608 41.832 18.42 41.888 18.26C41.944 18.1 42.068 17.996 42.26 17.948C42.452 17.9 42.608 17.932 42.728 18.044C42.848 18.148 42.94 18.308 43.004 18.524C43.332 19.58 43.68 20.46 44.048 21.164C44.416 21.86 44.816 22.416 45.248 22.832C45.68 23.24 46.152 23.528 46.664 23.696C47.184 23.872 47.756 23.96 48.38 23.96C48.764 23.96 49.056 23.924 49.256 23.852C49.456 23.788 49.62 23.712 49.748 23.624C49.884 23.544 50.032 23.48 50.192 23.432C50.312 23.408 50.404 23.424 50.468 23.48C50.532 23.544 50.564 23.632 50.564 23.744C50.564 23.824 50.548 23.916 50.516 24.02C50.484 24.124 50.436 24.244 50.372 24.38L49.796 25.568C49.676 25.808 49.516 25.98 49.316 26.084C49.124 26.188 48.836 26.24 48.452 26.24C47.748 26.24 47.076 26.104 46.436 25.832C45.804 25.568 45.208 25.14 44.648 24.548C44.096 23.956 43.588 23.192 43.124 22.256C42.66 21.312 42.248 20.168 41.888 18.824ZM59.1324 21.5V21.26L58.9044 21.212V14.024C58.9044 13.456 58.7604 13.02 58.4724 12.716C58.1924 12.404 57.7964 12.248 57.2844 12.248C56.8044 12.248 56.4364 12.352 56.1804 12.56C55.9324 12.768 55.8084 13.016 55.8084 13.304V14.36C55.8084 14.84 55.6484 15.212 55.3284 15.476C55.0084 15.732 54.5604 15.86 53.9844 15.86C53.4964 15.86 53.1244 15.744 52.8684 15.512C52.6204 15.28 52.4964 14.956 52.4964 14.54C52.4964 14.044 52.7004 13.556 53.1084 13.076C53.5244 12.596 54.1324 12.2 54.9324 11.888C55.7324 11.576 56.7164 11.42 57.8844 11.42C59.3484 11.42 60.4364 11.716 61.1484 12.308C61.8604 12.9 62.2164 13.704 62.2164 14.72V20.96C62.2164 21.184 62.2604 21.352 62.3484 21.464C62.4444 21.576 62.5764 21.632 62.7444 21.632C62.9204 21.632 63.0524 21.592 63.1404 21.512C63.2284 21.424 63.3044 21.336 63.3684 21.248C63.4084 21.192 63.4524 21.148 63.5004 21.116C63.5484 21.076 63.6044 21.056 63.6684 21.056C63.7644 21.056 63.8324 21.092 63.8724 21.164C63.9204 21.236 63.9444 21.328 63.9444 21.44C63.9444 21.704 63.8484 21.98 63.6564 22.268C63.4724 22.548 63.1964 22.788 62.8284 22.988C62.4604 23.188 62.0004 23.288 61.4484 23.288C60.7364 23.288 60.1724 23.128 59.7564 22.808C59.3404 22.488 59.1324 22.052 59.1324 21.5ZM51.9804 20.492C51.9804 19.508 52.4204 18.712 53.3004 18.104C54.1884 17.488 55.4324 17.18 57.0324 17.18C57.5524 17.18 58.0164 17.224 58.4244 17.312C58.8404 17.4 59.2004 17.52 59.5044 17.672L59.2524 18.404C58.9804 18.276 58.7004 18.176 58.4124 18.104C58.1324 18.032 57.8244 17.996 57.4884 17.996C56.8324 17.996 56.3204 18.168 55.9524 18.512C55.5844 18.856 55.4004 19.332 55.4004 19.94C55.4004 20.548 55.5564 21.012 55.8684 21.332C56.1884 21.652 56.6004 21.812 57.1044 21.812C57.5284 21.812 57.9364 21.716 58.3284 21.524C58.7204 21.324 59.0524 21.052 59.3244 20.708L59.5764 21.356C59.1444 21.972 58.5604 22.448 57.8244 22.784C57.0884 23.12 56.3084 23.288 55.4844 23.288C54.4444 23.288 53.6004 23.032 52.9524 22.52C52.3044 22.008 51.9804 21.332 51.9804 20.492ZM72.2951 21.2L70.5191 24.464L65.6471 13.64C65.5111 13.312 65.3671 13.088 65.2151 12.968C65.0631 12.84 64.8311 12.732 64.5191 12.644C64.3671 12.596 64.2591 12.536 64.1951 12.464C64.1391 12.384 64.1111 12.284 64.1111 12.164C64.1111 12.012 64.1631 11.896 64.2671 11.816C64.3791 11.728 64.5311 11.684 64.7231 11.684H70.0991C70.2911 11.684 70.4391 11.728 70.5431 11.816C70.6551 11.896 70.7111 12.008 70.7111 12.152C70.7111 12.28 70.6751 12.384 70.6031 12.464C70.5311 12.536 70.4071 12.592 70.2311 12.632L69.7631 12.728C69.4111 12.8 69.2031 12.932 69.1391 13.124C69.0831 13.308 69.1511 13.636 69.3431 14.108L72.2951 21.2ZM70.0271 24.944L70.8071 23.024L71.2271 22.208L74.3831 14.264C74.5751 13.792 74.6391 13.448 74.5751 13.232C74.5111 13.008 74.2951 12.856 73.9271 12.776L73.4351 12.668C73.2671 12.62 73.1431 12.556 73.0631 12.476C72.9911 12.388 72.9551 12.28 72.9551 12.152C72.9551 12.008 73.0071 11.896 73.1111 11.816C73.2231 11.728 73.3711 11.684 73.5551 11.684H76.9391C77.1311 11.684 77.2791 11.728 77.3831 11.816C77.4951 11.896 77.5511 12.012 77.5511 12.164C77.5511 12.268 77.5151 12.36 77.4431 12.44C77.3791 12.52 77.2631 12.592 77.0951 12.656C76.7351 12.768 76.4591 12.916 76.2671 13.1C76.0751 13.284 75.8911 13.604 75.7151 14.06L71.4191 24.692C70.9791 25.756 70.5711 26.58 70.1951 27.164C69.8271 27.748 69.4271 28.152 68.9951 28.376C68.5631 28.608 68.0391 28.724 67.4231 28.724C66.5111 28.724 65.7871 28.48 65.2511 27.992C64.7231 27.504 64.4591 26.908 64.4591 26.204C64.4591 25.692 64.5831 25.292 64.8311 25.004C65.0791 24.716 65.4111 24.572 65.8271 24.572C66.2271 24.572 66.5351 24.692 66.7511 24.932C66.9671 25.18 67.1431 25.508 67.2791 25.916L67.4351 26.372C67.4991 26.652 67.6031 26.864 67.7471 27.008C67.8911 27.16 68.0551 27.236 68.2391 27.236C68.4311 27.236 68.6111 27.176 68.7791 27.056C68.9471 26.936 69.1311 26.712 69.3311 26.384C69.5311 26.056 69.7631 25.576 70.0271 24.944ZM84.4681 11.408C85.6921 11.408 86.7681 11.66 87.6961 12.164C88.6241 12.668 89.3481 13.368 89.8681 14.264C90.3961 15.16 90.6601 16.196 90.6601 17.372C90.6601 18.5 90.3921 19.512 89.8561 20.408C89.3201 21.296 88.5761 22 87.6241 22.52C86.6801 23.032 85.5881 23.288 84.3481 23.288C83.1241 23.288 82.0481 23.036 81.1201 22.532C80.1921 22.028 79.4641 21.328 78.9361 20.432C78.4161 19.528 78.1561 18.492 78.1561 17.324C78.1561 16.188 78.4241 15.176 78.9601 14.288C79.4961 13.392 80.2361 12.688 81.1801 12.176C82.1321 11.664 83.2281 11.408 84.4681 11.408ZM85.3081 22.1C85.8521 22.012 86.2881 21.76 86.6161 21.344C86.9441 20.928 87.1521 20.352 87.2401 19.616C87.3361 18.872 87.2881 17.98 87.0961 16.94C86.9201 15.9 86.6561 15.044 86.3041 14.372C85.9601 13.7 85.5481 13.216 85.0681 12.92C84.5961 12.616 84.0761 12.508 83.5081 12.596C82.9641 12.684 82.5281 12.94 82.2001 13.364C81.8721 13.78 81.6641 14.356 81.5761 15.092C81.4881 15.828 81.5361 16.72 81.7201 17.768C81.9041 18.8 82.1681 19.652 82.5121 20.324C82.8641 20.996 83.2761 21.484 83.7481 21.788C84.2281 22.084 84.7481 22.188 85.3081 22.1ZM98.6478 11.408C99.8718 11.408 100.948 11.66 101.876 12.164C102.804 12.668 103.528 13.368 104.048 14.264C104.576 15.16 104.84 16.196 104.84 17.372C104.84 18.5 104.572 19.512 104.036 20.408C103.5 21.296 102.756 22 101.804 22.52C100.86 23.032 99.7678 23.288 98.5278 23.288C97.3038 23.288 96.2278 23.036 95.2998 22.532C94.3718 22.028 93.6438 21.328 93.1158 20.432C92.5958 19.528 92.3358 18.492 92.3358 17.324C92.3358 16.188 92.6038 15.176 93.1398 14.288C93.6758 13.392 94.4158 12.688 95.3598 12.176C96.3118 11.664 97.4078 11.408 98.6478 11.408ZM99.4878 22.1C100.032 22.012 100.468 21.76 100.796 21.344C101.124 20.928 101.332 20.352 101.42 19.616C101.516 18.872 101.468 17.98 101.276 16.94C101.1 15.9 100.836 15.044 100.484 14.372C100.14 13.7 99.7278 13.216 99.2478 12.92C98.7758 12.616 98.2558 12.508 97.6878 12.596C97.1438 12.684 96.7078 12.94 96.3798 13.364C96.0518 13.78 95.8438 14.356 95.7558 15.092C95.6678 15.828 95.7158 16.72 95.8998 17.768C96.0838 18.8 96.3478 19.652 96.6918 20.324C97.0438 20.996 97.4558 21.484 97.9278 21.788C98.4078 22.084 98.9278 22.188 99.4878 22.1ZM108.88 23.264C108.496 23.264 108.144 23.164 107.824 22.964C107.504 22.764 107.248 22.5 107.056 22.172C106.872 21.844 106.78 21.488 106.78 21.104C106.78 20.712 106.872 20.356 107.056 20.036C107.248 19.708 107.504 19.448 107.824 19.256C108.144 19.064 108.496 18.968 108.88 18.968C109.28 18.968 109.64 19.064 109.96 19.256C110.28 19.448 110.532 19.708 110.716 20.036C110.9 20.356 110.992 20.712 110.992 21.104C110.992 21.488 110.9 21.844 110.716 22.172C110.532 22.5 110.28 22.764 109.96 22.964C109.64 23.164 109.28 23.264 108.88 23.264Z" fill="#464020"/>
<g clip-path="url(#clip0_381_182)">
<path d="M6.989 5.46999L11.649 8.65099C11.754 8.72099 11.877 8.75899 12.003 8.76199C12.1294 8.76111 12.2527 8.72246 12.357 8.65099L17.021 5.45899C17.11 5.39481 17.1809 5.30875 17.2268 5.20913C17.2727 5.10951 17.2922 4.99971 17.2832 4.89037C17.2743 4.78104 17.2372 4.67586 17.1757 4.58504C17.1142 4.49422 17.0302 4.42084 16.932 4.37199L12.272 2.06499C12.1848 2.02254 12.089 2.00049 11.992 2.00049C11.895 2.00049 11.7992 2.02254 11.712 2.06499L7.067 4.37199C6.96679 4.42089 6.8812 4.49527 6.8188 4.58768C6.75641 4.68009 6.7194 4.78728 6.7115 4.89851C6.7036 5.00973 6.72508 5.12107 6.77378 5.22138C6.82249 5.32168 6.89671 5.40742 6.989 5.46999ZM13.586 9.64899C13.586 9.85999 13.69 10.057 13.862 10.177L17.598 12.73C17.7142 12.81 17.8539 12.8486 17.9947 12.8395C18.1354 12.8305 18.2691 12.7743 18.374 12.68L21.508 9.87699C21.5771 9.81518 21.6318 9.73904 21.6684 9.65389C21.705 9.56875 21.7226 9.47663 21.7199 9.38399C21.7173 9.29134 21.6944 9.20039 21.653 9.11749C21.6115 9.03458 21.5525 8.96172 21.48 8.90399L18.488 6.51099C18.3822 6.42685 18.2523 6.37867 18.1172 6.37345C17.9822 6.36824 17.849 6.40626 17.737 6.48199L13.863 9.13199C13.7792 9.19008 13.7104 9.26724 13.6622 9.35712C13.6141 9.44701 13.5879 9.54704 13.586 9.64899ZM4.295 13.123C4.36954 13.19 4.42729 13.2736 4.46359 13.3671C4.49989 13.4605 4.51373 13.5612 4.504 13.661C4.49444 13.7612 4.46081 13.8577 4.40597 13.9421C4.35112 14.0266 4.27669 14.0965 4.189 14.146L1.958 15.483C1.84763 15.5491 1.71967 15.5799 1.59131 15.5711C1.46295 15.5623 1.34036 15.5145 1.24 15.434C1.13911 15.3532 1.06505 15.2437 1.02757 15.12C0.990081 14.9963 0.990929 14.8642 1.03 14.741L1.855 12.145C1.8864 12.0441 1.94267 11.9528 2.01862 11.8793C2.09458 11.8059 2.18778 11.7527 2.28966 11.7247C2.39153 11.6968 2.49881 11.6948 2.60162 11.7192C2.70443 11.7435 2.79947 11.7933 2.878 11.864L4.295 13.123ZM16.395 13.394L12.362 10.634C12.2574 10.5636 12.1341 10.526 12.008 10.526C11.8819 10.526 11.7586 10.5636 11.654 10.634L7.621 13.394C7.54167 13.4491 7.47569 13.5212 7.42793 13.6051C7.38016 13.6891 7.35183 13.7827 7.345 13.879C7.34005 13.9761 7.35647 14.073 7.39311 14.163C7.42974 14.2531 7.48568 14.334 7.557 14.4L11.587 18.005C11.7031 18.1078 11.8529 18.1646 12.008 18.1646C12.1631 18.1646 12.3129 18.1078 12.429 18.005L16.459 14.4C16.5303 14.3347 16.5861 14.2542 16.6223 14.1645C16.6584 14.0748 16.674 13.9782 16.6678 13.8817C16.6617 13.7852 16.634 13.6912 16.5868 13.6069C16.5396 13.5225 16.474 13.4497 16.395 13.394ZM5.637 12.681L2.507 9.87799C2.43702 9.81471 2.3817 9.73691 2.34491 9.65003C2.30812 9.56315 2.29074 9.46928 2.294 9.37499C2.29541 9.28226 2.3174 9.19101 2.35839 9.10783C2.39938 9.02464 2.45833 8.9516 2.531 8.89399L5.523 6.48699C5.62946 6.40304 5.7598 6.355 5.89528 6.34979C6.03076 6.34458 6.1644 6.38246 6.277 6.45799L10.147 9.10799C10.2359 9.16607 10.309 9.24541 10.3595 9.33882C10.4101 9.43223 10.4366 9.53677 10.4366 9.64299C10.4366 9.74921 10.4101 9.85375 10.3595 9.94716C10.309 10.0406 10.2359 10.1199 10.147 10.178L6.415 12.731C6.29834 12.8107 6.15837 12.849 6.01739 12.84C5.8764 12.8309 5.7425 12.7749 5.637 12.681ZM21.71 16.707L18.523 14.799C18.4078 14.7294 18.2732 14.6987 18.1393 14.7115C18.0053 14.7243 17.879 14.7799 17.779 14.87L13.884 18.347C13.8032 18.4197 13.7422 18.5116 13.7065 18.6143C13.6708 18.7169 13.6617 18.8269 13.68 18.934C13.6981 19.0409 13.7433 19.1414 13.8112 19.2259C13.8791 19.3105 13.9675 19.3762 14.068 19.417L19.472 21.607C19.6244 21.6679 19.7945 21.6673 19.9465 21.6054C20.0985 21.5435 20.2205 21.4251 20.287 21.275L21.962 17.523C22.0278 17.3798 22.0385 17.2174 21.992 17.0668C21.9455 16.9162 21.8451 16.7881 21.71 16.707ZM22.152 12.146L22.977 14.742H22.97C23.0096 14.8646 23.0109 14.9963 22.9739 15.1197C22.9368 15.2431 22.8631 15.3523 22.7625 15.4329C22.6619 15.5134 22.5392 15.5614 22.4107 15.5705C22.2822 15.5796 22.154 15.5495 22.043 15.484L19.809 14.147C19.7231 14.0964 19.6505 14.026 19.5974 13.9416C19.5444 13.8572 19.5123 13.7613 19.504 13.662C19.4935 13.5622 19.507 13.4613 19.5434 13.3677C19.5797 13.2741 19.6379 13.1906 19.713 13.124L21.129 11.862C21.2077 11.7913 21.303 11.7417 21.406 11.7175C21.5089 11.6934 21.6163 11.6956 21.7183 11.7239C21.8202 11.7521 21.9133 11.8056 21.9891 11.8794C22.0649 11.9532 22.121 12.0449 22.152 12.146ZM10.332 18.932C10.3508 18.8253 10.3422 18.7157 10.3068 18.6133C10.2715 18.5109 10.2106 18.4193 10.13 18.347L6.235 14.87C6.13503 14.7799 6.00872 14.7243 5.87473 14.7115C5.74075 14.6987 5.60621 14.7294 5.491 14.799L2.304 16.707C2.17041 16.7888 2.07097 16.9162 2.02409 17.0657C1.97721 17.2152 1.98606 17.3765 2.049 17.52L3.727 21.272C3.79306 21.4222 3.91492 21.5407 4.06682 21.6027C4.21872 21.6647 4.38876 21.6651 4.541 21.604L9.941 19.414C10.0419 19.3737 10.1307 19.3082 10.1992 19.2238C10.2676 19.1395 10.3133 19.039 10.332 18.932ZM12.244 20.002L16.578 21.757C16.79 21.848 16.936 22.047 16.96 22.278C16.9734 22.3924 16.9555 22.5083 16.9081 22.6133C16.8607 22.7183 16.7857 22.8084 16.691 22.874L12.353 25.887C12.2495 25.9595 12.1264 25.9989 12 26C11.8733 25.9979 11.7501 25.9582 11.646 25.886L7.312 22.873C7.2162 22.8081 7.13993 22.7184 7.09143 22.6133C7.04293 22.5083 7.02404 22.392 7.0368 22.2771C7.04957 22.1621 7.0935 22.0528 7.16385 21.9609C7.2342 21.8691 7.32831 21.7982 7.436 21.756L11.77 20.001C11.9223 19.9408 12.0919 19.9412 12.244 20.002Z" fill="#464020"/>
</g>
<defs>
<clipPath id="clip0_381_182">
<rect width="24" height="24" fill="white" transform="translate(0 2)"/>
</clipPath>
</defs>
</svg>
